<svg width="20" height="16" viewBox="0 0 20 16" fill="none" xmlns="http://www.w3.org/2000/svg">
<path d="M0.644592 15.0609H1.30733V0.922477H0.644592V15.0609ZM1.60188 15.0609H1.97007V0.922477H1.60188V15.0609ZM2.63281 15.0609H2.92736V0.922477H2.63281V15.0609ZM4.25284 15.0609H4.58421V0.922477H4.25284V15.0609ZM5.57832 15.0609H6.24106V0.922477H5.57832V15.0609ZM7.23517 15.0609H7.56653V0.922477H7.23517V15.0609ZM7.8979 15.0609H8.22927V0.922477H7.8979V15.0609ZM8.56064 15.0609H8.89201V0.922477H8.56064V15.0609ZM9.88612 15.0609H10.5489V0.922477H9.88612V15.0609ZM11.543 15.0609H12.2057V0.922477H11.543V15.0609ZM12.8684 15.0609H13.5312V0.922477H12.8684V15.0609ZM14.1939 15.0609H14.8567V0.922477H14.1939V15.0609ZM15.188 15.0609H15.8508V0.922477H15.188V15.0609ZM16.8449 15.0609H17.839V0.922477H16.8449V15.0609ZM18.1704 15.0609H18.5017V0.922477H18.1704V15.0609ZM18.8331 15.0609H19.4958V0.922477H18.8331V15.0609Z" fill="white"/>
</svg>
