<svg width="22" height="18" viewBox="0 0 22 18" fill="none" xmlns="http://www.w3.org/2000/svg">
<path d="M0.421753 15.538C0.421753 16.5321 1.19495 17.3053 2.18906 17.3053H19.8621C20.8194 17.3053 21.6294 16.5321 21.6294 15.538V9.05792H0.421753V15.538ZM7.49097 13.0344C7.49097 12.8134 7.67507 12.5925 7.9328 12.5925H12.9402C13.1611 12.5925 13.382 12.8134 13.382 13.0344V14.5071C13.382 14.7648 13.1611 14.9489 12.9402 14.9489H7.9328C7.67507 14.9489 7.49097 14.7648 7.49097 14.5071V13.0344ZM2.77816 13.0344C2.77816 12.8134 2.96225 12.5925 3.21999 12.5925H5.87094C6.09185 12.5925 6.31277 12.8134 6.31277 13.0344V14.5071C6.31277 14.7648 6.09185 14.9489 5.87094 14.9489H3.21999C2.96225 14.9489 2.77816 14.7648 2.77816 14.5071V13.0344ZM21.6294 2.5778C21.6294 1.62051 20.8194 0.810497 19.8621 0.810497H2.18906C1.19495 0.810497 0.421753 1.62051 0.421753 2.5778V4.34511H21.6294V2.5778Z" fill="white"/>
</svg>
