<svg width="51" height="55" viewBox="0 0 51 55" fill="none" xmlns="http://www.w3.org/2000/svg">
<path d="M44.3428 20.8433C43.8543 18.9724 41.9239 17.8414 40.053 18.33C38.0971 18.8407 37.0512 20.7489 37.5397 22.6198L36.8594 22.7974L36.3264 20.7565C35.8379 18.8856 33.9075 17.7546 32.0366 18.2432C30.0807 18.7539 29.0348 20.6621 29.5233 22.533L30.0563 24.5739L29.3759 24.7515L28.4877 21.35C27.9992 19.4791 26.0688 18.3481 24.1979 18.8366C22.242 19.3474 21.196 21.2556 21.6846 23.1264L22.5728 26.528L21.8925 26.7057L17.4513 9.69783C16.9628 7.82697 15.0324 6.69597 13.1615 7.1845C11.2056 7.69523 10.1596 9.60344 10.6482 11.4743L16.777 34.9451L13.1009 31.999C11.5957 30.757 9.38089 30.972 8.13886 32.4772C6.89683 33.9824 7.11182 36.1972 8.61704 37.4392L23.4103 49.5638C24.2276 50.2587 25.3813 50.5025 26.5719 50.1916L44.26 45.5728C45.7907 45.1731 46.8849 43.7973 46.8253 42.1778L46.5266 29.9019C46.545 29.6245 46.5634 29.3472 46.4746 29.0071L44.3428 20.8433ZM24.3493 33.3311L26.481 41.4949L25.8007 41.6726L23.669 33.5088L24.3493 33.3311ZM31.8327 31.377L33.9645 39.5408L33.2842 39.7184L31.1524 31.5547L31.8327 31.377ZM39.3162 29.4229L41.4479 37.5867L40.7676 37.7643L38.6359 29.6006L39.3162 29.4229Z" fill="#CBE896"/>
</svg>
